Coordinates
version=1
nRows=32
nColumns=12
inDegrees=yes

Units are S.I. units (second, meters, Newtons, ...)
Angles are in degrees

endheader
time	SC_y	SC_z	SC_x	AC_y	AC_z	AC_x	GH_y	GH_z	GH_yy	EL_x	PS_y
       0.0              -23.71          35.05          6.219          32.22         -2.712         -0.412          152.8          77.53         -83.59          32.12          155.2
   0.01495              -23.72          35.05          6.221          32.23         -2.712        -0.4091          152.8          77.52         -83.57          32.13          155.2
    0.0299              -23.72          35.05          6.223          32.23         -2.712         -0.406          152.7          77.52         -83.56          32.13          155.2
   0.04485              -23.73          35.05          6.225          32.24         -2.712        -0.4028          152.7          77.51         -83.54          32.13          155.2
   0.05981              -23.73          35.05          6.227          32.24         -2.713        -0.3993          152.7           77.5         -83.52          32.14          155.2
   0.07476              -23.74          35.05          6.229          32.25         -2.713        -0.3956          152.7           77.5          -83.5          32.14          155.2
   0.08971              -23.74          35.04          6.232          32.26         -2.714        -0.3916          152.7          77.49         -83.48          32.15          155.2
    0.1047              -23.75          35.04          6.234          32.27         -2.714        -0.3874          152.7          77.48         -83.46          32.15          155.2
    0.1196              -23.75          35.04          6.237          32.28         -2.714        -0.3829          152.6          77.48         -83.44          32.16          155.2
    0.1346              -23.76          35.04           6.24          32.29         -2.715        -0.3781          152.6          77.47         -83.41          32.16          155.1
    0.1495              -23.77          35.04          6.243          32.29         -2.715        -0.3728          152.6          77.46         -83.38          32.17          155.1
    0.1645              -23.77          35.03          6.246          32.31         -2.716        -0.3672          152.6          77.45         -83.36          32.18          155.1
    0.1794              -23.78          35.03           6.25          32.32         -2.716        -0.3612          152.6          77.44         -83.32          32.18          155.1
    0.1944              -23.79          35.03          6.254          32.33         -2.717        -0.3547          152.5          77.42         -83.29          32.19          155.1
    0.2093               -23.8          35.03          6.258          32.34         -2.718        -0.3476          152.5          77.41         -83.25           32.2          155.1
    0.2243              -23.81          35.02          6.263          32.36         -2.719        -0.3399          152.5           77.4         -83.21          32.21          155.0
    0.2392              -23.82          35.02          6.268          32.37         -2.719        -0.3316          152.4          77.38         -83.17          32.22          155.0
    0.2542              -23.84          35.02          6.273          32.39          -2.72        -0.3225          152.4          77.37         -83.12          32.23          155.0
    0.2691              -23.85          35.01          6.279          32.41         -2.721        -0.3126          152.3          77.35         -83.07          32.24          155.0
    0.2841              -23.86          35.01          6.286          32.43         -2.722        -0.3018          152.3          77.33         -83.01          32.26          154.9
     0.299              -23.88          35.01          6.293          32.45         -2.723        -0.2898          152.2          77.31         -82.95          32.27          154.9
     0.314               -23.9           35.0          6.301          32.48         -2.725        -0.2767          152.2          77.29         -82.88          32.29          154.9
    0.3289              -23.92           35.0           6.31          32.51         -2.726        -0.2622          152.1          77.26         -82.81           32.3          154.8
    0.3439              -23.94          34.99           6.32          32.54         -2.727        -0.2462          152.1          77.23         -82.72          32.32          154.8
    0.3588              -23.96          34.98          6.331          32.57         -2.729        -0.2284          152.0           77.2         -82.63          32.34          154.7
    0.3738              -23.99          34.98          6.343          32.61         -2.731        -0.2085          151.9          77.16         -82.52          32.37          154.7
    0.3887              -24.02          34.97          6.356          32.65         -2.733        -0.1862          151.8          77.12         -82.41          32.39          154.6
    0.4037              -24.06          34.96          6.371           32.7         -2.736        -0.1611          151.7          77.08         -82.28          32.42          154.6
    0.4186              -24.09          34.95          6.389          32.75         -2.738        -0.1327          151.6          77.03         -82.13          32.46          154.5
    0.4336              -24.14          34.94          6.408          32.81         -2.741        -0.1006          151.4          76.97         -81.96           32.5          154.4
    0.4485              -24.19          34.92           6.43          32.88         -2.745       -0.06383          151.3           76.9         -81.77          32.54          154.3
    0.4635              -24.25          34.91          6.456          32.96         -2.749       -0.02168          151.1          76.83         -81.55          32.59          154.2
